<svg id="visual" viewBox="0 0 1440 2560" width="1440" height="2560" xmlns="http://www.w3.org/2000/svg" xmlns:xlink="http://www.w3.org/1999/xlink" version="1.1"><path d="M0 769L13.3 700.7C26.7 632.3 53.3 495.7 80 461.5C106.7 427.3 133.3 495.7 160 512.8C186.7 530 213.3 496 240 483.2C266.7 470.3 293.3 478.7 320 474.3C346.7 470 373.3 453 400 448.8C426.7 444.7 453.3 453.3 480 483.2C506.7 513 533.3 564 560 572.5C586.7 581 613.3 547 640 568.3C666.7 589.7 693.3 666.3 720 666.3C746.7 666.3 773.3 589.7 800 551.3C826.7 513 853.3 513 880 496C906.7 479 933.3 445 960 419.3C986.7 393.7 1013.3 376.3 1040 380.5C1066.7 384.7 1093.3 410.3 1120 444.5C1146.7 478.7 1173.3 521.3 1200 508.5C1226.7 495.7 1253.3 427.3 1280 453C1306.7 478.7 1333.3 598.3 1360 653.8C1386.7 709.3 1413.3 700.7 1426.7 696.3L1440 692L1440 0L1426.7 0C1413.3 0 1386.7 0 1360 0C1333.3 0 1306.7 0 1280 0C1253.3 0 1226.7 0 1200 0C1173.3 0 1146.7 0 1120 0C1093.3 0 1066.7 0 1040 0C1013.3 0 986.7 0 960 0C933.3 0 906.7 0 880 0C853.3 0 826.7 0 800 0C773.3 0 746.7 0 720 0C693.3 0 666.7 0 640 0C613.3 0 586.7 0 560 0C533.3 0 506.7 0 480 0C453.3 0 426.7 0 400 0C373.3 0 346.7 0 320 0C293.3 0 266.7 0 240 0C213.3 0 186.7 0 160 0C133.3 0 106.7 0 80 0C53.3 0 26.7 0 13.3 0L0 0Z" fill="#ffffff"></path><path d="M0 871L13.3 811.3C26.7 751.7 53.3 632.3 80 598.3C106.7 564.3 133.3 615.7 160 637C186.7 658.3 213.3 649.7 240 649.7C266.7 649.7 293.3 658.3 320 649.8C346.7 641.3 373.3 615.7 400 607C426.7 598.3 453.3 606.7 480 628C506.7 649.3 533.3 683.7 560 692.3C586.7 701 613.3 684 640 705.3C666.7 726.7 693.3 786.3 720 786.3C746.7 786.3 773.3 726.7 800 696.8C826.7 667 853.3 667 880 637C906.7 607 933.3 547 960 525.7C986.7 504.3 1013.3 521.7 1040 526C1066.7 530.3 1093.3 521.7 1120 551.5C1146.7 581.3 1173.3 649.7 1200 649.7C1226.7 649.7 1253.3 581.3 1280 611.2C1306.7 641 1333.3 769 1360 820.2C1386.7 871.3 1413.3 845.7 1426.7 832.8L1440 820L1440 690L1426.7 694.3C1413.3 698.7 1386.7 707.3 1360 651.8C1333.3 596.3 1306.7 476.7 1280 451C1253.3 425.3 1226.7 493.7 1200 506.5C1173.3 519.3 1146.7 476.7 1120 442.5C1093.3 408.3 1066.7 382.7 1040 378.5C1013.3 374.3 986.7 391.7 960 417.3C933.3 443 906.7 477 880 494C853.3 511 826.7 511 800 549.3C773.3 587.7 746.7 664.3 720 664.3C693.3 664.3 666.7 587.7 640 566.3C613.3 545 586.7 579 560 570.5C533.3 562 506.7 511 480 481.2C453.3 451.3 426.7 442.7 400 446.8C373.3 451 346.7 468 320 472.3C293.3 476.7 266.7 468.3 240 481.2C213.3 494 186.7 528 160 510.8C133.3 493.7 106.7 425.3 80 459.5C53.3 493.7 26.7 630.3 13.3 698.7L0 767Z" fill="#ffedf2"></path><path d="M0 1153L13.3 1093.3C26.7 1033.7 53.3 914.3 80 863.2C106.7 812 133.3 829 160 850.3C186.7 871.7 213.3 897.3 240 918.7C266.7 940 293.3 957 320 952.7C346.7 948.3 373.3 922.7 400 901.3C426.7 880 453.3 863 480 863C506.7 863 533.3 880 560 918.3C586.7 956.7 613.3 1016.3 640 1059C666.7 1101.7 693.3 1127.3 720 1118.8C746.7 1110.3 773.3 1067.7 800 1050.7C826.7 1033.7 853.3 1042.3 880 1038C906.7 1033.7 933.3 1016.3 960 999.2C986.7 982 1013.3 965 1040 952.3C1066.7 939.7 1093.3 931.3 1120 957C1146.7 982.7 1173.3 1042.3 1200 1008.2C1226.7 974 1253.3 846 1280 841.7C1306.7 837.3 1333.3 956.7 1360 1046.2C1386.7 1135.7 1413.3 1195.3 1426.7 1225.2L1440 1255L1440 818L1426.7 830.8C1413.3 843.7 1386.7 869.3 1360 818.2C1333.3 767 1306.7 639 1280 609.2C1253.3 579.3 1226.7 647.7 1200 647.7C1173.3 647.7 1146.7 579.3 1120 549.5C1093.3 519.7 1066.7 528.3 1040 524C1013.3 519.7 986.7 502.3 960 523.7C933.3 545 906.7 605 880 635C853.3 665 826.7 665 800 694.8C773.3 724.7 746.7 784.3 720 784.3C693.3 784.3 666.7 724.7 640 703.3C613.3 682 586.7 699 560 690.3C533.3 681.7 506.7 647.3 480 626C453.3 604.7 426.7 596.3 400 605C373.3 613.7 346.7 639.3 320 647.8C293.3 656.3 266.7 647.7 240 647.7C213.3 647.7 186.7 656.3 160 635C133.3 613.7 106.7 562.3 80 596.3C53.3 630.3 26.7 749.7 13.3 809.3L0 869Z" fill="#ffdbe4"></path><path d="M0 1486L13.3 1490.2C26.7 1494.3 53.3 1502.7 80 1472.8C106.7 1443 133.3 1375 160 1379.3C186.7 1383.7 213.3 1460.3 240 1490.2C266.7 1520 293.3 1503 320 1503C346.7 1503 373.3 1520 400 1528.5C426.7 1537 453.3 1537 480 1520C506.7 1503 533.3 1469 560 1507.3C586.7 1545.7 613.3 1656.3 640 1681.8C666.7 1707.3 693.3 1647.7 720 1600.8C746.7 1554 773.3 1520 800 1498.7C826.7 1477.3 853.3 1468.7 880 1494.2C906.7 1519.7 933.3 1579.3 960 1596.5C986.7 1613.7 1013.3 1588.3 1040 1550C1066.7 1511.7 1093.3 1460.3 1120 1481.7C1146.7 1503 1173.3 1597 1200 1588.5C1226.7 1580 1253.3 1469 1280 1443.3C1306.7 1417.7 1333.3 1477.3 1360 1520C1386.7 1562.7 1413.3 1588.3 1426.7 1601.2L1440 1614L1440 1253L1426.7 1223.2C1413.3 1193.3 1386.7 1133.7 1360 1044.2C1333.3 954.7 1306.7 835.3 1280 839.7C1253.3 844 1226.7 972 1200 1006.2C1173.3 1040.3 1146.7 980.7 1120 955C1093.3 929.3 1066.7 937.7 1040 950.3C1013.3 963 986.7 980 960 997.2C933.3 1014.3 906.7 1031.7 880 1036C853.3 1040.3 826.7 1031.7 800 1048.7C773.3 1065.7 746.7 1108.3 720 1116.8C693.3 1125.3 666.7 1099.7 640 1057C613.3 1014.3 586.7 954.7 560 916.3C533.3 878 506.7 861 480 861C453.3 861 426.7 878 400 899.3C373.3 920.7 346.7 946.3 320 950.7C293.3 955 266.7 938 240 916.7C213.3 895.3 186.7 869.7 160 848.3C133.3 827 106.7 810 80 861.2C53.3 912.3 26.7 1031.7 13.3 1091.3L0 1151Z" fill="#ffc9d7"></path><path d="M0 1665L13.3 1660.7C26.7 1656.3 53.3 1647.7 80 1609.3C106.7 1571 133.3 1503 160 1498.8C186.7 1494.7 213.3 1554.3 240 1575.7C266.7 1597 293.3 1580 320 1584.2C346.7 1588.3 373.3 1613.7 400 1622.2C426.7 1630.7 453.3 1622.3 480 1622.3C506.7 1622.3 533.3 1630.7 560 1669C586.7 1707.3 613.3 1775.7 640 1792.8C666.7 1810 693.3 1776 720 1737.7C746.7 1699.3 773.3 1656.7 800 1639.5C826.7 1622.3 853.3 1630.7 880 1669C906.7 1707.3 933.3 1775.7 960 1788.5C986.7 1801.3 1013.3 1758.7 1040 1711.8C1066.7 1665 1093.3 1614 1120 1626.8C1146.7 1639.7 1173.3 1716.3 1200 1707.7C1226.7 1699 1253.3 1605 1280 1575.2C1306.7 1545.3 1333.3 1579.7 1360 1631C1386.7 1682.3 1413.3 1750.7 1426.7 1784.8L1440 1819L1440 1612L1426.7 1599.2C1413.3 1586.3 1386.7 1560.7 1360 1518C1333.3 1475.3 1306.7 1415.7 1280 1441.3C1253.3 1467 1226.7 1578 1200 1586.5C1173.3 1595 1146.7 1501 1120 1479.7C1093.3 1458.3 1066.7 1509.7 1040 1548C1013.3 1586.3 986.7 1611.7 960 1594.5C933.3 1577.3 906.7 1517.7 880 1492.2C853.3 1466.7 826.7 1475.3 800 1496.7C773.3 1518 746.7 1552 720 1598.8C693.3 1645.7 666.7 1705.3 640 1679.8C613.3 1654.3 586.7 1543.7 560 1505.3C533.3 1467 506.7 1501 480 1518C453.3 1535 426.7 1535 400 1526.5C373.3 1518 346.7 1501 320 1501C293.3 1501 266.7 1518 240 1488.2C213.3 1458.3 186.7 1381.7 160 1377.3C133.3 1373 106.7 1441 80 1470.8C53.3 1500.7 26.7 1492.3 13.3 1488.2L0 1484Z" fill="#ffb7ca"></path><path d="M0 1921L13.3 1908.2C26.7 1895.3 53.3 1869.7 80 1835.5C106.7 1801.3 133.3 1758.7 160 1763C186.7 1767.3 213.3 1818.7 240 1840C266.7 1861.3 293.3 1852.7 320 1861.2C346.7 1869.7 373.3 1895.3 400 1895.3C426.7 1895.3 453.3 1869.7 480 1865.3C506.7 1861 533.3 1878 560 1899.3C586.7 1920.7 613.3 1946.3 640 1972C666.7 1997.7 693.3 2023.3 720 1997.8C746.7 1972.3 773.3 1895.7 800 1857.3C826.7 1819 853.3 1819 880 1857.3C906.7 1895.7 933.3 1972.3 960 2002.2C986.7 2032 1013.3 2015 1040 1968C1066.7 1921 1093.3 1844 1120 1839.7C1146.7 1835.3 1173.3 1903.7 1200 1903.7C1226.7 1903.7 1253.3 1835.3 1280 1809.8C1306.7 1784.3 1333.3 1801.7 1360 1831.7C1386.7 1861.7 1413.3 1904.3 1426.7 1925.7L1440 1947L1440 1817L1426.7 1782.8C1413.3 1748.7 1386.7 1680.3 1360 1629C1333.3 1577.7 1306.7 1543.3 1280 1573.2C1253.3 1603 1226.7 1697 1200 1705.7C1173.3 1714.3 1146.7 1637.7 1120 1624.8C1093.3 1612 1066.7 1663 1040 1709.8C1013.3 1756.7 986.7 1799.3 960 1786.5C933.3 1773.7 906.7 1705.3 880 1667C853.3 1628.7 826.7 1620.3 800 1637.5C773.3 1654.7 746.7 1697.3 720 1735.7C693.3 1774 666.7 1808 640 1790.8C613.3 1773.7 586.7 1705.3 560 1667C533.3 1628.7 506.7 1620.3 480 1620.3C453.3 1620.3 426.7 1628.7 400 1620.2C373.3 1611.7 346.7 1586.3 320 1582.2C293.3 1578 266.7 1595 240 1573.7C213.3 1552.3 186.7 1492.7 160 1496.8C133.3 1501 106.7 1569 80 1607.3C53.3 1645.7 26.7 1654.3 13.3 1658.7L0 1663Z" fill="#ffa5be"></path><path d="M0 2151L13.3 2129.7C26.7 2108.3 53.3 2065.7 80 2040.2C106.7 2014.7 133.3 2006.3 160 2015C186.7 2023.7 213.3 2049.3 240 2053.5C266.7 2057.7 293.3 2040.3 320 2057.3C346.7 2074.3 373.3 2125.7 400 2134.3C426.7 2143 453.3 2109 480 2096.2C506.7 2083.3 533.3 2091.7 560 2117.2C586.7 2142.7 613.3 2185.3 640 2206.7C666.7 2228 693.3 2228 720 2211C746.7 2194 773.3 2160 800 2147.2C826.7 2134.3 853.3 2142.7 880 2159.7C906.7 2176.7 933.3 2202.3 960 2211C986.7 2219.7 1013.3 2211.3 1040 2185.8C1066.7 2160.3 1093.3 2117.7 1120 2109C1146.7 2100.3 1173.3 2125.7 1200 2117C1226.7 2108.3 1253.3 2065.7 1280 2070C1306.7 2074.3 1333.3 2125.7 1360 2155.7C1386.7 2185.7 1413.3 2194.3 1426.7 2198.7L1440 2203L1440 1945L1426.7 1923.7C1413.3 1902.3 1386.7 1859.7 1360 1829.7C1333.3 1799.7 1306.7 1782.3 1280 1807.8C1253.3 1833.3 1226.7 1901.7 1200 1901.7C1173.3 1901.7 1146.7 1833.3 1120 1837.7C1093.3 1842 1066.7 1919 1040 1966C1013.3 2013 986.7 2030 960 2000.2C933.3 1970.3 906.7 1893.7 880 1855.3C853.3 1817 826.7 1817 800 1855.3C773.3 1893.7 746.7 1970.3 720 1995.8C693.3 2021.3 666.7 1995.7 640 1970C613.3 1944.3 586.7 1918.7 560 1897.3C533.3 1876 506.7 1859 480 1863.3C453.3 1867.7 426.7 1893.3 400 1893.3C373.3 1893.3 346.7 1867.7 320 1859.2C293.3 1850.7 266.7 1859.3 240 1838C213.3 1816.7 186.7 1765.3 160 1761C133.3 1756.7 106.7 1799.3 80 1833.5C53.3 1867.7 26.7 1893.3 13.3 1906.2L0 1919Z" fill="#ff92b1"></path><path d="M0 2254L13.3 2254C26.7 2254 53.3 2254 80 2254C106.7 2254 133.3 2254 160 2254C186.7 2254 213.3 2254 240 2249.7C266.7 2245.3 293.3 2236.7 320 2249.5C346.7 2262.3 373.3 2296.7 400 2301C426.7 2305.3 453.3 2279.7 480 2271C506.7 2262.3 533.3 2270.7 560 2283.5C586.7 2296.3 613.3 2313.7 640 2326.5C666.7 2339.3 693.3 2347.7 720 2339C746.7 2330.3 773.3 2304.7 800 2300.5C826.7 2296.3 853.3 2313.7 880 2322.3C906.7 2331 933.3 2331 960 2331C986.7 2331 1013.3 2331 1040 2326.7C1066.7 2322.3 1093.3 2313.7 1120 2300.8C1146.7 2288 1173.3 2271 1200 2262.5C1226.7 2254 1253.3 2254 1280 2275.3C1306.7 2296.7 1333.3 2339.3 1360 2347.8C1386.7 2356.3 1413.3 2330.7 1426.7 2317.8L1440 2305L1440 2201L1426.7 2196.7C1413.3 2192.3 1386.7 2183.7 1360 2153.7C1333.3 2123.7 1306.7 2072.3 1280 2068C1253.3 2063.7 1226.7 2106.3 1200 2115C1173.3 2123.7 1146.7 2098.3 1120 2107C1093.3 2115.7 1066.7 2158.3 1040 2183.8C1013.3 2209.3 986.7 2217.7 960 2209C933.3 2200.3 906.7 2174.7 880 2157.7C853.3 2140.7 826.7 2132.3 800 2145.2C773.3 2158 746.7 2192 720 2209C693.3 2226 666.7 2226 640 2204.7C613.3 2183.3 586.7 2140.7 560 2115.2C533.3 2089.7 506.7 2081.3 480 2094.2C453.3 2107 426.7 2141 400 2132.3C373.3 2123.7 346.7 2072.3 320 2055.3C293.3 2038.3 266.7 2055.7 240 2051.5C213.3 2047.3 186.7 2021.7 160 2013C133.3 2004.3 106.7 2012.7 80 2038.2C53.3 2063.7 26.7 2106.3 13.3 2127.7L0 2149Z" fill="#ff7da5"></path><path d="M0 2459L13.3 2459C26.7 2459 53.3 2459 80 2454.7C106.7 2450.3 133.3 2441.7 160 2433C186.7 2424.3 213.3 2415.7 240 2420C266.7 2424.3 293.3 2441.7 320 2450.3C346.7 2459 373.3 2459 400 2450.3C426.7 2441.7 453.3 2424.3 480 2424.3C506.7 2424.3 533.3 2441.7 560 2446C586.7 2450.3 613.3 2441.7 640 2441.7C666.7 2441.7 693.3 2450.3 720 2450.3C746.7 2450.3 773.3 2441.7 800 2441.7C826.7 2441.7 853.3 2450.3 880 2454.7C906.7 2459 933.3 2459 960 2463.2C986.7 2467.3 1013.3 2475.7 1040 2471.3C1066.7 2467 1093.3 2450 1120 2441.5C1146.7 2433 1173.3 2433 1200 2428.7C1226.7 2424.3 1253.3 2415.7 1280 2424.2C1306.7 2432.7 1333.3 2458.3 1360 2467C1386.7 2475.7 1413.3 2467.3 1426.7 2463.2L1440 2459L1440 2303L1426.7 2315.8C1413.3 2328.7 1386.7 2354.3 1360 2345.8C1333.3 2337.3 1306.7 2294.7 1280 2273.3C1253.3 2252 1226.7 2252 1200 2260.5C1173.3 2269 1146.7 2286 1120 2298.8C1093.3 2311.7 1066.7 2320.3 1040 2324.7C1013.3 2329 986.7 2329 960 2329C933.3 2329 906.7 2329 880 2320.3C853.3 2311.7 826.7 2294.3 800 2298.5C773.3 2302.7 746.7 2328.3 720 2337C693.3 2345.7 666.7 2337.3 640 2324.5C613.3 2311.7 586.7 2294.3 560 2281.5C533.3 2268.7 506.7 2260.3 480 2269C453.3 2277.7 426.7 2303.3 400 2299C373.3 2294.7 346.7 2260.3 320 2247.5C293.3 2234.7 266.7 2243.3 240 2247.7C213.3 2252 186.7 2252 160 2252C133.3 2252 106.7 2252 80 2252C53.3 2252 26.7 2252 13.3 2252L0 2252Z" fill="#ff6799"></path><path d="M0 2561L13.3 2561C26.7 2561 53.3 2561 80 2561C106.7 2561 133.3 2561 160 2561C186.7 2561 213.3 2561 240 2561C266.7 2561 293.3 2561 320 2561C346.7 2561 373.3 2561 400 2561C426.7 2561 453.3 2561 480 2561C506.7 2561 533.3 2561 560 2561C586.7 2561 613.3 2561 640 2561C666.7 2561 693.3 2561 720 2561C746.7 2561 773.3 2561 800 2561C826.7 2561 853.3 2561 880 2561C906.7 2561 933.3 2561 960 2561C986.7 2561 1013.3 2561 1040 2561C1066.7 2561 1093.3 2561 1120 2561C1146.7 2561 1173.3 2561 1200 2561C1226.7 2561 1253.3 2561 1280 2561C1306.7 2561 1333.3 2561 1360 2561C1386.7 2561 1413.3 2561 1426.7 2561L1440 2561L1440 2457L1426.7 2461.2C1413.3 2465.3 1386.7 2473.7 1360 2465C1333.3 2456.3 1306.7 2430.7 1280 2422.2C1253.3 2413.7 1226.7 2422.3 1200 2426.7C1173.3 2431 1146.7 2431 1120 2439.5C1093.3 2448 1066.7 2465 1040 2469.3C1013.3 2473.7 986.7 2465.3 960 2461.2C933.3 2457 906.7 2457 880 2452.7C853.3 2448.3 826.7 2439.7 800 2439.7C773.3 2439.7 746.7 2448.3 720 2448.3C693.3 2448.3 666.7 2439.7 640 2439.7C613.3 2439.7 586.7 2448.3 560 2444C533.3 2439.7 506.7 2422.3 480 2422.3C453.3 2422.3 426.7 2439.7 400 2448.3C373.3 2457 346.7 2457 320 2448.3C293.3 2439.7 266.7 2422.3 240 2418C213.3 2413.7 186.7 2422.3 160 2431C133.3 2439.7 106.7 2448.3 80 2452.7C53.3 2457 26.7 2457 13.3 2457L0 2457Z" fill="#fe4e8c"></path></svg>