<svg id="visual" viewBox="0 0 900 600" width="900" height="600" xmlns="http://www.w3.org/2000/svg" xmlns:xlink="http://www.w3.org/1999/xlink" version="1.1"><path d="M0 163L47 163L47 103L95 103L95 163L142 163L142 187L189 187L189 133L237 133L237 169L284 169L284 205L332 205L332 217L379 217L379 121L426 121L426 103L474 103L474 217L521 217L521 181L568 181L568 163L616 163L616 97L663 97L663 133L711 133L711 133L758 133L758 175L805 175L805 235L853 235L853 145L900 145L900 163L900 0L900 0L853 0L853 0L805 0L805 0L758 0L758 0L711 0L711 0L663 0L663 0L616 0L616 0L568 0L568 0L521 0L521 0L474 0L474 0L426 0L426 0L379 0L379 0L332 0L332 0L284 0L284 0L237 0L237 0L189 0L189 0L142 0L142 0L95 0L95 0L47 0L47 0L0 0Z" fill="#ffffff"></path><path d="M0 223L47 223L47 163L95 163L95 223L142 223L142 223L189 223L189 193L237 193L237 211L284 211L284 247L332 247L332 259L379 259L379 187L426 187L426 169L474 169L474 247L521 247L521 223L568 223L568 193L616 193L616 169L663 169L663 205L711 205L711 169L758 169L758 229L805 229L805 271L853 271L853 193L900 193L900 211L900 161L900 143L853 143L853 233L805 233L805 173L758 173L758 131L711 131L711 131L663 131L663 95L616 95L616 161L568 161L568 179L521 179L521 215L474 215L474 101L426 101L426 119L379 119L379 215L332 215L332 203L284 203L284 167L237 167L237 131L189 131L189 185L142 185L142 161L95 161L95 101L47 101L47 161L0 161Z" fill="#ffbcce"></path><path d="M0 409L47 409L47 337L95 337L95 373L142 373L142 313L189 313L189 301L237 301L237 313L284 313L284 385L332 385L332 373L379 373L379 307L426 307L426 367L474 367L474 391L521 391L521 367L568 367L568 331L616 331L616 367L663 367L663 307L711 307L711 325L758 325L758 361L805 361L805 367L853 367L853 319L900 319L900 355L900 209L900 191L853 191L853 269L805 269L805 227L758 227L758 167L711 167L711 203L663 203L663 167L616 167L616 191L568 191L568 221L521 221L521 245L474 245L474 167L426 167L426 185L379 185L379 257L332 257L332 245L284 245L284 209L237 209L237 191L189 191L189 221L142 221L142 221L95 221L95 161L47 161L47 221L0 221Z" fill="#ff739f"></path><path d="M0 475L47 475L47 421L95 421L95 451L142 451L142 415L189 415L189 421L237 421L237 415L284 415L284 445L332 445L332 427L379 427L379 427L426 427L426 445L474 445L474 463L521 463L521 451L568 451L568 475L616 475L616 427L663 427L663 415L711 415L711 415L758 415L758 409L805 409L805 469L853 469L853 385L900 385L900 487L900 353L900 317L853 317L853 365L805 365L805 359L758 359L758 323L711 323L711 305L663 305L663 365L616 365L616 329L568 329L568 365L521 365L521 389L474 389L474 365L426 365L426 305L379 305L379 371L332 371L332 383L284 383L284 311L237 311L237 299L189 299L189 311L142 311L142 371L95 371L95 335L47 335L47 407L0 407Z" fill="#fe4e8c"></path><path d="M0 505L47 505L47 463L95 463L95 499L142 499L142 451L189 451L189 463L237 463L237 451L284 451L284 481L332 481L332 481L379 481L379 463L426 463L426 505L474 505L474 517L521 517L521 487L568 487L568 505L616 505L616 469L663 469L663 457L711 457L711 475L758 475L758 451L805 451L805 499L853 499L853 445L900 445L900 517L900 485L900 383L853 383L853 467L805 467L805 407L758 407L758 413L711 413L711 413L663 413L663 425L616 425L616 473L568 473L568 449L521 449L521 461L474 461L474 443L426 443L426 425L379 425L379 425L332 425L332 443L284 443L284 413L237 413L237 419L189 419L189 413L142 413L142 449L95 449L95 419L47 419L47 473L0 473Z" fill="#ff739f"></path><path d="M0 565L47 565L47 541L95 541L95 559L142 559L142 517L189 517L189 523L237 523L237 547L284 547L284 523L332 523L332 541L379 541L379 559L426 559L426 565L474 565L474 565L521 565L521 559L568 559L568 559L616 559L616 541L663 541L663 541L711 541L711 547L758 547L758 535L805 535L805 565L853 565L853 523L900 523L900 565L900 515L900 443L853 443L853 497L805 497L805 449L758 449L758 473L711 473L711 455L663 455L663 467L616 467L616 503L568 503L568 485L521 485L521 515L474 515L474 503L426 503L426 461L379 461L379 479L332 479L332 479L284 479L284 449L237 449L237 461L189 461L189 449L142 449L142 497L95 497L95 461L47 461L47 503L0 503Z" fill="#ffbcce"></path><path d="M0 601L47 601L47 601L95 601L95 601L142 601L142 601L189 601L189 601L237 601L237 601L284 601L284 601L332 601L332 601L379 601L379 601L426 601L426 601L474 601L474 601L521 601L521 601L568 601L568 601L616 601L616 601L663 601L663 601L711 601L711 601L758 601L758 601L805 601L805 601L853 601L853 601L900 601L900 601L900 563L900 521L853 521L853 563L805 563L805 533L758 533L758 545L711 545L711 539L663 539L663 539L616 539L616 557L568 557L568 557L521 557L521 563L474 563L474 563L426 563L426 557L379 557L379 539L332 539L332 521L284 521L284 545L237 545L237 521L189 521L189 515L142 515L142 557L95 557L95 539L47 539L47 563L0 563Z" fill="#ffffff"></path></svg>