<svg id="visual" viewBox="0 0 900 600" width="900" height="600" xmlns="http://www.w3.org/2000/svg" xmlns:xlink="http://www.w3.org/1999/xlink" version="1.1"><path d="M0 153L10.7 172.2C21.3 191.3 42.7 229.7 64.2 238.7C85.7 247.7 107.3 227.3 128.8 212C150.3 196.7 171.7 186.3 193 181.3C214.3 176.3 235.7 176.7 257 172.2C278.3 167.7 299.7 158.3 321.2 163.5C342.7 168.7 364.3 188.3 385.8 204C407.3 219.7 428.7 231.3 450 238.5C471.3 245.7 492.7 248.3 514.2 235.2C535.7 222 557.3 193 578.8 185C600.3 177 621.7 190 643 196.5C664.3 203 685.7 203 707 204.5C728.3 206 749.7 209 771.2 203.5C792.7 198 814.3 184 835.8 184.2C857.3 184.3 878.7 198.7 889.3 205.8L900 213L900 0L889.3 0C878.7 0 857.3 0 835.8 0C814.3 0 792.7 0 771.2 0C749.7 0 728.3 0 707 0C685.7 0 664.3 0 643 0C621.7 0 600.3 0 578.8 0C557.3 0 535.7 0 514.2 0C492.7 0 471.3 0 450 0C428.7 0 407.3 0 385.8 0C364.3 0 342.7 0 321.2 0C299.7 0 278.3 0 257 0C235.7 0 214.3 0 193 0C171.7 0 150.3 0 128.8 0C107.3 0 85.7 0 64.2 0C42.7 0 21.3 0 10.7 0L0 0Z" fill="#fe4e8c" stroke-linecap="round" stroke-linejoin="miter"></path></svg>